<?xml version="1.0" encoding="UTF-8" standalone="no"?>
<!DOCTYPE svg PUBLIC "-//W3C//DTD SVG 1.1//EN"
 "http://www.w3.org/Graphics/SVG/1.1/DTD/svg11.dtd">
<!-- Generated by graphviz version 2.43.0 (0)
 -->
<!-- Title: decision tree Pages: 1 -->
<svg width="338pt" height="218pt"
 viewBox="0.00 0.00 337.99 218.00" xmlns="http://www.w3.org/2000/svg" xmlns:xlink="http://www.w3.org/1999/xlink">
<g id="graph0" class="graph" transform="scale(1 1) rotate(0) translate(4 214)">
<title>decision tree</title>
<polygon fill="white" stroke="transparent" points="-4,4 -4,-214 333.99,-214 333.99,4 -4,4"/>
<!-- Feature_1 &gt; 0 -->
<g id="node1" class="node">
<title>Feature_1 &gt; 0</title>
<ellipse fill="gray" stroke="black" cx="165.29" cy="-192" rx="76.89" ry="18"/>
<text text-anchor="middle" x="165.29" y="-188.3" font-family="Times,serif" font-size="14.00">Feature_1 &gt; 0</text>
</g>
<!-- Feature_2 &gt; &#45;1 -->
<g id="node2" class="node">
<title>Feature_2 &gt; &#45;1</title>
<ellipse fill="gray" stroke="black" cx="79.29" cy="-105" rx="79.09" ry="18"/>
<text text-anchor="middle" x="79.29" y="-101.3" font-family="Times,serif" font-size="14.00">Feature_2 &gt; &#45;1</text>
</g>
<!-- Feature_1 &gt; 0&#45;&gt;Feature_2 &gt; &#45;1 -->
<g id="edge1" class="edge">
<title>Feature_1 &gt; 0&#45;&gt;Feature_2 &gt; &#45;1</title>
<path fill="none" stroke="black" d="M148.3,-174.21C135.46,-161.52 117.67,-143.93 103.37,-129.79"/>
<polygon fill="black" stroke="black" points="105.82,-127.3 96.25,-122.76 100.9,-132.28 105.82,-127.3"/>
<text text-anchor="middle" x="139.29" y="-144.8" font-family="Times,serif" font-size="14.00"> no</text>
</g>
<!-- Feature_2 &gt; 1 -->
<g id="node3" class="node">
<title>Feature_2 &gt; 1</title>
<ellipse fill="gray" stroke="black" cx="253.29" cy="-105" rx="76.89" ry="18"/>
<text text-anchor="middle" x="253.29" y="-101.3" font-family="Times,serif" font-size="14.00">Feature_2 &gt; 1</text>
</g>
<!-- Feature_1 &gt; 0&#45;&gt;Feature_2 &gt; 1 -->
<g id="edge2" class="edge">
<title>Feature_1 &gt; 0&#45;&gt;Feature_2 &gt; 1</title>
<path fill="none" stroke="black" d="M182.68,-174.21C195.82,-161.52 214.02,-143.93 228.66,-129.79"/>
<polygon fill="black" stroke="black" points="231.18,-132.22 235.94,-122.76 226.32,-127.19 231.18,-132.22"/>
<text text-anchor="middle" x="229.79" y="-144.8" font-family="Times,serif" font-size="14.00"> yes</text>
</g>
<!--  &#160; -->
<g id="node6" class="node">
<title> &#160;</title>
<ellipse fill="#fdc086" stroke="black" cx="50.29" cy="-18" rx="27" ry="18"/>
<text text-anchor="middle" x="50.29" y="-14.3" font-family="Times,serif" font-size="14.00"> &#160;</text>
</g>
<!-- Feature_2 &gt; &#45;1&#45;&gt; &#160; -->
<g id="edge5" class="edge">
<title>Feature_2 &gt; &#45;1&#45;&gt; &#160;</title>
<path fill="none" stroke="black" d="M73.42,-86.8C69.39,-74.97 63.95,-59.03 59.36,-45.58"/>
<polygon fill="black" stroke="black" points="62.6,-44.22 56.05,-35.89 55.97,-46.48 62.6,-44.22"/>
<text text-anchor="middle" x="78.29" y="-57.8" font-family="Times,serif" font-size="14.00"> no</text>
</g>
<!--  &#160;&#160; -->
<g id="node7" class="node">
<title> &#160;&#160;</title>
<ellipse fill="#b2dfee" stroke="black" cx="122.29" cy="-18" rx="27" ry="18"/>
<text text-anchor="middle" x="122.29" y="-14.3" font-family="Times,serif" font-size="14.00"> &#160;&#160;</text>
</g>
<!-- Feature_2 &gt; &#45;1&#45;&gt; &#160;&#160; -->
<g id="edge6" class="edge">
<title>Feature_2 &gt; &#45;1&#45;&gt; &#160;&#160;</title>
<path fill="none" stroke="black" d="M87.99,-86.8C94.18,-74.58 102.58,-57.98 109.52,-44.26"/>
<polygon fill="black" stroke="black" points="112.65,-45.81 114.04,-35.31 106.4,-42.65 112.65,-45.81"/>
<text text-anchor="middle" x="118.79" y="-57.8" font-family="Times,serif" font-size="14.00"> yes</text>
</g>
<g id="node4" class="node">
<title></title>
<ellipse fill="#b2dfee" stroke="black" cx="209.29" cy="-18" rx="27" ry="18"/>
</g>
<!-- Feature_2 &gt; 1&#45;&gt; -->
<g id="edge3" class="edge">
<title>Feature_2 &gt; 1&#45;&gt;</title>
<path fill="none" stroke="black" d="M244.39,-86.8C238.06,-74.58 229.47,-57.98 222.37,-44.26"/>
<polygon fill="black" stroke="black" points="225.44,-42.58 217.74,-35.31 219.22,-45.8 225.44,-42.58"/>
<text text-anchor="middle" x="245.29" y="-57.8" font-family="Times,serif" font-size="14.00"> no</text>
</g>
<!--   -->
<g id="node5" class="node">
<title> </title>
<ellipse fill="#fdc086" stroke="black" cx="281.29" cy="-18" rx="27" ry="18"/>
<text text-anchor="middle" x="281.29" y="-14.3" font-family="Times,serif" font-size="14.00"> </text>
</g>
<!-- Feature_2 &gt; 1&#45;&gt;  -->
<g id="edge4" class="edge">
<title>Feature_2 &gt; 1&#45;&gt; </title>
<path fill="none" stroke="black" d="M258.96,-86.8C262.86,-74.97 268.11,-59.03 272.54,-45.58"/>
<polygon fill="black" stroke="black" points="275.93,-46.48 275.73,-35.89 269.28,-44.29 275.93,-46.48"/>
<text text-anchor="middle" x="282.79" y="-57.8" font-family="Times,serif" font-size="14.00"> yes</text>
</g>
</g>
</svg>
